/* XPM */
static char *_551388152460[] = {
/* columns rows colors chars-per-pixel */
"32 32 219 2 ",
"   c #004A68",
".  c #004C6A",
"X  c #004D6B",
"o  c #004E6B",
"O  c #00516E",
"+  c #00526E",
"@  c #00526F",
"#  c #01536F",
"$  c #005370",
"%  c #005470",
"&  c #015470",
"*  c #005571",
"=  c #005572",
"-  c #005672",
";  c #005773",
":  c #055571",
">  c #045773",
",  c #005874",
"<  c #005975",
"1  c #005A75",
"2  c #035A75",
"3  c #005A76",
"4  c #005B76",
"5  c #005B77",
"6  c #075A75",
"7  c #005C77",
"8  c #025C77",
"9  c #005D78",
"0  c #015D78",
"q  c #015E78",
"w  c #015E79",
"e  c #025E79",
"r  c #035E79",
"t  c #025F79",
"y  c #035F79",
"u  c #035F7A",
"i  c #045F7A",
"p  c #04607A",
"a  c #05607B",
"s  c #06607B",
"d  c #07617C",
"f  c #07627C",
"g  c #09617B",
"h  c #09627C",
"j  c #0A647D",
"k  c #12637D",
"l  c #0E6680",
"z  c #006886",
"x  c #076A85",
"c  c #086A85",
"v  c #086B86",
"b  c #0B6C87",
"n  c #006D8A",
"m  c #006E8A",
"M  c #006E8B",
"N  c #016E8B",
"B  c #016F8B",
"V  c #016F8C",
"C  c #136882",
"Z  c #136982",
"A  c #1C6A83",
"S  c #196C84",
"D  c #1B6D86",
"F  c #1A6E86",
"G  c #00708C",
"H  c #02708C",
"J  c #03708D",
"K  c #04718D",
"L  c #06728E",
"P  c #07728E",
"I  c #08738F",
"U  c #09738F",
"Y  c #1F7189",
"T  c #0A7490",
"R  c #0C7590",
"E  c #0C7691",
"W  c #0D7691",
"Q  c #0E7691",
"!  c #0E7792",
"~  c #0F7792",
"^  c #0F7893",
"/  c #107792",
"(  c #107892",
")  c #107893",
"_  c #117893",
"`  c #127893",
"'  c #127993",
"]  c #107994",
"[  c #127994",
"{  c #137994",
"}  c #147A94",
"|  c #157A95",
" . c #147B95",
".. c #197D97",
"X. c #216881",
"o. c #22738A",
"O. c #277189",
"+. c #26748B",
"@. c #28768C",
"#. c #2F7B91",
"$. c #327D93",
"%. c #347E93",
"&. c #21819A",
"*. c #2B879F",
"=. c #2D889F",
"-. c #3B8095",
";. c #388196",
":. c #3B8196",
">. c #3F8498",
",. c #2D88A0",
"<. c #318AA1",
"1. c #348CA3",
"2. c #4D879B",
"3. c #478A9E",
"4. c #498B9F",
"5. c #4C8C9F",
"6. c #518B9F",
"7. c #4C8DA0",
"8. c #4F8FA2",
"9. c #4495AA",
"0. c #4897AC",
"q. c #4B97AC",
"w. c #4E9BAF",
"e. c #5996A7",
"r. c #5A96A7",
"t. c #5B97A8",
"y. c #569FB2",
"u. c #659BAC",
"i. c #669BAC",
"p. c #659CAD",
"a. c #669EAE",
"s. c #699DAD",
"d. c #699FAF",
"f. c #5EA3B6",
"g. c #6BA1B1",
"h. c #63A7B8",
"j. c #67A9BA",
"k. c #6DACBC",
"l. c #78A8B6",
"z. c #79AAB8",
"x. c #7EB6C4",
"c. c #82B0BD",
"v. c #8CB6C2",
"b. c #88BCC9",
"n. c #92B9C5",
"m. c #90BAC5",
"M. c #92BAC6",
"N. c #96BCC7",
"B. c #95C3CF",
"V. c #9CC0CA",
"C. c #9EC1CC",
"Z. c #97C4D0",
"A. c #9CC7D2",
"S. c #9DC8D3",
"D. c #A5C5CE",
"F. c #ADC7D0",
"G. c #A1CAD4",
"H. c #AAC9D2",
"J. c #ACC9D2",
"K. c #B3CED7",
"L. c #B6D1D9",
"P. c #B7D1D9",
"I. c #B9D3DA",
"U. c #BBD4DB",
"Y. c #BCD4DB",
"T. c #BDD4DC",
"R. c #C6DBE1",
"E. c #C7DBE1",
"W. c #C1DCE3",
"Q. c #C7DCE2",
"!. c #C7DFE6",
"~. c #CCDEE3",
"^. c #CCDFE4",
"/. c #CDDFE4",
"(. c #CDDFE5",
"). c #D0E1E6",
"_. c #D2E2E7",
"`. c #D4E3E8",
"'. c #D1E5EA",
"]. c #D3E6EB",
"[. c #D4E7EC",
"{. c #D8E6EA",
"}. c #DBE9ED",
"|. c #D9EAEE",
" X c #DDE9ED",
".X c #DDECEF",
"XX c #DFEDF1",
"oX c #E2ECEF",
"OX c #E4EEF1",
"+X c #EDF5F7",
"@X c #EEF4F6",
"#X c #F0F5F7",
"$X c #F0F6F7",
"%X c #F2F7F8",
"&X c #F2F8F9",
"*X c #F3F8F9",
"=X c #F5F8F9",
"-X c #F6F9FA",
";X c #F7FAFB",
":X c #F8FAFB",
">X c #F8FBFB",
",X c #F8FBFC",
"<X c #F9FBFC",
"1X c #F9FCFC",
"2X c #FAFCFC",
"3X c #FAFCFD",
"4X c #FBFCFD",
"5X c #FAFDFD",
"6X c #FBFDFD",
"7X c #FCFDFD",
"8X c #FCFDFE",
"9X c #FDFDFE",
"0X c #FCFEFE",
"qX c #FDFEFE",
"wX c #FEFEFE",
"eX c #FEFEFF",
"rX c #FEFFFF",
"tX c white",
"yX c None",
/* pixels */
"yXyXyXyXyXyXyXyXyXyXyXyX~ ~ ~ ~ ~ / ~ ~ yXyXyXyXyXyXyXyXyXyXyXyX",
"yXyXyXyXyXyXyXyXyX~ ~ ~ ~ ~ / / _ _ _ ~ / / ~ yXyXyXyXyXyXyXyXyX",
"yXyXyXyXyXyXyX~ ~ ~ / / ' ] / P P V P ~ ] / ~ ~ ~ yXyXyXyXyXyXyX",
"yXyXyXyXyXyX~ ~ ~ ~ ' ] P m ~ *.9.0.,.~ m ^ ~ ~ ~ ~ yXyXyXyXyXyX",
"yXyXyXyXyX~ ~ ~ ^ ' T m ,.b.].:XtXtX4X[.j.P ~ ~ ~ ~ ~ yXyXyXyXyX",
"yXyXyXyX9 c ] / ' m &.A.,XtXtX4X4X,XtX4XtXS.P ' ~ ~ ~ ~ yXyXyXyX",
"yXyXyX9 7 7 c ^ G h.+XtXtX4XtXtXtXtXtXtX4XtXk.m ] / ~ ~ ~ yXyXyX",
"yXyX9 9 9 9 7 x A.tX4X4XtXtXtXR.r.7.R.tX4XtX!.I ] / ~ ~ ~ ~ yXyX",
"yXyX9 9 9 r & -.tXtXtXtXtXtXR., @ @ O.,XtXtXOX] ~ ~ ~ ~ ~ ~ yXyX",
"yX9 9 9 9 p $ p.tX Xv.4XtXtXu.@ j , A ;XtXtX'.~ ~ ~ ~ ~ ~ ~ ~ yX",
"yX9 9 9 9 p & N.L., 2.tX:XtX6.  > @ m.tX;XtXZ.m ] / / ~ ~ ~ ~ yX",
"yX9 9 9 9 7 r $.6 X c.tX:XtXE.3.r.Y.tXtXtX&X<.T / / ~ ~ ~ ~ ~ yX",
"9 9 9 9 9 9 9 , p & H.tXtXtXtXtXtXtXtXtX4Xq.z  .~ ~ ~ ~ ~ ~ ~ ~ ",
"9 9 9 9 9 9 9 9 9 9 `.tX4XtXtXtXtX7X:XtX,XW.w.m ' ~ ~ / ~ ~ ~ ~ ",
"9 9 9 9 9 9 9 9 , F &XtXtX@XU.K./.tXtXtXtXtXtXx.m ] / / ~ ~ ~ ~ ",
"9 9 9 9 9 9 9 p & :.tX4XtXN.X > , $.~.tXtXtX4XtXk.m ] ~ ~ ~ ~ ~ ",
"9 9 9 9 9 9 9 r @ p.tX:XtXg.$ f 9 & k }.tXtX4XtX&X=.P ] ~ ~ ~ ~ ",
"9 9 9 9 9 9 9 p @ n.tX,XtX>.& a 9 h @ s.tX4XtX4XtXB.m ' ~ ~ ~ ~ ",
"9 9 9 9 9 9 9 9 & T.tXtX&XF , f p 9 & X.4XtXtX4XtX.X' ~ / ~ ~ ~ ",
"9 9 9 9 9 9 9 9 f OXtXtX{.9 , & @ 7 o.g.;XtXtXtXtXtX1.P ' ~ ~ ~ ",
"yX9 9 9 9 9 9 , +.tX4XtXF.X F 7.N._.4XtXtXtXtX4X4XtXw.H ' ~ ~ yX",
"yX9 9 9 9 9 p & 5.tX,XtX/.L.;XtXtXtXtX:X4X4XtXtX4XtXy.V ' ~ ~ yX",
"yX9 9 9 9 9 r @ l.tXtXtXtXtXtX4X:X:XtXtXtXtXtX}.S.f. .~ / ~ ~ yX",
"yXyX9 9 9 9 p @ D.tX,XtX4X:X4XtXtXtXtXOXH.p.+.x H m ~ / ~ ~ yXyX",
"yXyX9 9 9 9 9 8 ~.tX,XtXtXtXtX@XT.z.;.h $ $ & 7 b ] ^ ~ ~ ~ yXyX",
"yXyXyX9 9 9 , C @XtXtX,X/.v.7.Z & @ & 9 9 p p 9 7 v ^ ~ ~ yXyXyX",
"yXyXyXyX9 r , %.oXC.t.o., @ & , p p p 9 9 9 9 9 9 , v ' yXyXyXyX",
"yXyXyXyXyX9 9 j g @ $ , 9 p p 9 9 9 9 9 9 9 9 9 9 9 9 yXyXyXyXyX",
"yXyXyXyXyXyX9 9 9 p r 9 9 9 9 9 9 9 9 9 9 9 9 9 9 9 yXyXyXyXyXyX",
"yXyXyXyXyXyXyX9 9 9 9 9 9 9 9 9 9 9 9 9 9 9 9 9 9 yXyXyXyXyXyXyX",
"yXyXyXyXyXyXyXyXyX9 9 9 9 9 9 9 9 9 9 9 9 9 9 yXyXyXyXyXyXyXyXyX",
"yXyXyXyXyXyXyXyXyXyXyXyX9 9 9 9 9 9 9 9 yXyXyXyXyXyXyXyXyXyXyXyX"
};
