/* XPM */
static char *_551387334304[] = {
/* columns rows colors chars-per-pixel */
"16 16 118 2 ",
"   c #003658",
".  c #004867",
"X  c #004B69",
"o  c #004D6A",
"O  c #00516E",
"+  c #00526F",
"@  c #00536F",
"#  c #005370",
"$  c #005571",
"%  c #005672",
"&  c #005773",
"*  c #035773",
"=  c #005874",
"-  c #005975",
";  c #005A75",
":  c #005A76",
">  c #005B76",
",  c #015B76",
"<  c #005D78",
"1  c #015D78",
"2  c #025D78",
"3  c #015E78",
"4  c #015E79",
"5  c #025E79",
"6  c #035E79",
"7  c #025F79",
"8  c #035F7A",
"9  c #045F7A",
"0  c #04607A",
"q  c #016380",
"w  c #016682",
"e  c #0E6680",
"r  c #086A85",
"t  c #006D8A",
"y  c #016F8C",
"u  c #136982",
"i  c #166B84",
"p  c #1E6F87",
"a  c #02708C",
"s  c #06728E",
"d  c #07728E",
"f  c #08738F",
"g  c #09738F",
"h  c #0A748F",
"j  c #0B7490",
"k  c #0B7590",
"l  c #0E7792",
"z  c #0F7792",
"x  c #0E7893",
"c  c #107892",
"v  c #107893",
"b  c #117893",
"n  c #127993",
"m  c #127994",
"M  c #137994",
"N  c #147A94",
"B  c #1C7E98",
"V  c #24758C",
"C  c #2E7990",
"Z  c #337E93",
"A  c #347D92",
"S  c #22829B",
"D  c #23829B",
"F  c #388196",
"G  c #3B8297",
"H  c #3D8397",
"J  c #2F89A0",
"K  c #368DA4",
"L  c #388EA4",
"P  c #4D8C9F",
"I  c #4D8EA0",
"U  c #4898AD",
"Y  c #5190A3",
"T  c #5390A2",
"R  c #5593A5",
"E  c #639CAC",
"W  c #689DAE",
"Q  c #57A0B3",
"!  c #74A1B1",
"~  c #7FADBB",
"^  c #75B0C0",
"/  c #85B2BE",
"(  c #8CB2BF",
")  c #82B2C0",
"_  c #89B4C1",
"`  c #8EB7C3",
"'  c #85BAC8",
"]  c #97BCC7",
"[  c #A6C5CE",
"{  c #A7C5CF",
"}  c #ADCBD3",
"|  c #A9CED8",
" . c #ACD0D9",
".. c #C1D6DD",
"X. c #C0D7DD",
"o. c #C4DEE4",
"O. c #CEE0E5",
"+. c #D4E4E8",
"@. c #D9E7EB",
"#. c #DBEAEE",
"$. c #E0EBEE",
"%. c #E2ECF0",
"&. c #E4EEF1",
"*. c #EAF2F4",
"=. c #ECF3F5",
"-. c #ECF4F6",
";. c #EEF4F6",
":. c #EFF5F7",
">. c #F0F6F8",
",. c #F4F8F9",
"<. c #F7FAFA",
"1. c #F6FAFB",
"2. c #FBFDFE",
"3. c #FDFDFD",
"4. c #FCFDFE",
"5. c #FDFEFE",
"6. c white",
"7. c None",
/* pixels */
"7.7.7.7.7.m M z s g m 7.7.7.7.7.",
"7.7.7.z m s y B D B a z z 7.7.7.",
"7.7.r v t L | >.6.3.' s v v 7.7.",
"7.1 1 w ' 6.6.;.} ;.6.Q t v z 7.",
"7.0 % A <.$.6.P   ( 6.^ t M v 7.",
"1 1 & F C [ 6.Y F &.2.K h v z z ",
"1 1 1 : & +.6.6.6.6.o.M g v z z ",
"1 1 1 > V 3.$.R / ;.6.#.D h v z ",
"1 1 9 % H 6.{ X X Y 6.6.| y v z ",
"1 > 0 + W 6.! . 1 A <.6.;.S j v ",
"1 1 0 # ] 6._ / +.6.6.6.6.L s v ",
"7.1 1 % ..6.6.6.6.,. ._ U v v 7.",
"7.1 > e *.6.o.` P i : + q x z 7.",
"7.7.: u E V , O + : 1 1 1 r 7.7.",
"7.7.7.: # : 1 0 0 1 1 1 1 7.7.7.",
"7.7.7.7.7.0 1 1 1 1 1 7.7.7.7.7."
};
