/* XPM */
static char *_551981069560[] = {
/* columns rows colors chars-per-pixel */
"48 48 92 1 ",
"  c #004E6B",
". c #00526E",
"X c #005571",
"o c #005A75",
"O c #095975",
"+ c #005D78",
"@ c #0C5F7A",
"# c #05607A",
"$ c #0C647E",
"% c #13647D",
"& c #016480",
"* c #0F6780",
"= c #086A85",
"- c #006E8B",
"; c #0D6D88",
": c #106680",
"> c #156A83",
", c #1B6E86",
"< c #04718D",
"1 c #09738F",
"2 c #1F7189",
"3 c #0F7792",
"4 c #107792",
"5 c #117993",
"6 c #197D97",
"7 c #1D7F99",
"8 c #217087",
"9 c #22738A",
"0 c #2A778E",
"q c #2C788F",
"w c #2F7A90",
"e c #347D93",
"r c #23829B",
"t c #3B8297",
"y c #3D8499",
"u c #2E89A0",
"i c #3A8FA5",
"p c #42879B",
"a c #46889C",
"s c #4A8A9D",
"d c #4D8DA0",
"f c #4495AA",
"g c #4A99AD",
"h c #5693A5",
"j c #5890A3",
"k c #5E98A9",
"l c #569FB2",
"z c #639CAD",
"x c #5DA3B5",
"c c #63A7B8",
"v c #66A8BA",
"b c #6AABBB",
"n c #73A5B4",
"m c #7AA9B7",
"M c #7DACB9",
"N c #76B1C1",
"B c #7BB4C3",
"V c #85ADBA",
"C c #85B1BF",
"Z c #8AB4C0",
"A c #84B9C7",
"S c #8DBECB",
"D c #91B9C5",
"F c #99BEC9",
"G c #92C1CE",
"H c #9FC1CC",
"J c #9AC6D1",
"K c #A4C4CE",
"L c #A6C6D0",
"P c #B0CCD4",
"I c #AED1DA",
"U c #B3D3DB",
"Y c #BCD4DB",
"T c #C0D6DD",
"R c #C5DDE3",
"E c #C9DCE2",
"W c #CFE1E6",
"Q c #D1E1E6",
"! c #D5E5E9",
"~ c #D6E8EC",
"^ c #DCEAED",
"/ c #DFEDF0",
"( c #E0ECEF",
") c #E3EDF0",
"_ c #E4F0F3",
"` c #ECF3F5",
"' c #EFF6F8",
"] c #F1F6F7",
"[ c #F2F7F8",
"{ c #F6F9FB",
"} c #FEFEFE",
"| c None",
/* pixels */
"|||||||||||||||||||3353333333|||||||||||||||||||",
"||||||||||||||||3353333333333334||||||||||||||||",
"|||||||||||||3433333333335333433333|||||||||||||",
"||||||||||||333333333333555553333353||||||||||||",
"||||||||||3333333334553<<--<3553333333||||||||||",
"|||||||||33343333553--6ilcxf7-<53333333|||||||||",
"||||||||3333333453-6cU`}}}}}'If-33333333||||||||",
"|||||||=53433353-rA`}}}}}}}}}}}H135335333|||||||",
"||||||+o=53335<3B'}}}}}}}}}}}}}}U<53333334||||||",
"|||||+++o=534-f~}}}}}}}}}}}}}}}{}B-53533333|||||",
"||||+++o++=3<A}}}}}}}}}}{)'}}}}}}_6333333333||||",
"||||++++++o;U}}}}}}}}}}Z2#*C}}}}}}g<533533333|||",
"|||++++++#Xs}}}}}}}}}}z O+o Y}}}}}b-533353335|||",
"||+++++++#.n}{}{[}}}}EX+++#XV}}}}}c-5533333333||",
"||++++++++XK}}QeY}}}}CX#++#.K}}}}}f<5433333333||",
"||++++++++oW}noO)}}{}nX##+ e{}}}})734443333333||",
"|++++++++o,Yq.Xq}}}}}L X.Xy)}}}}}G-533333333334|",
"|++++++o+o$$.$Xd}}}}}}LzMT}}}}}}/73333333333333|",
"|+++++++++o+#+.m}}}}}}}}}}}}}}}^u15333333333333|",
"+++++++++++++#.L}}}}}}}}}{}}}}}Jr-35333343333333",
"+++++++++++++++E}}}}}}}}}}}}}}}}{S3<543333333353",
"++++++++++++#o>]}}}}}}{{}}}}}}}}}}!r<53333333333",
"++++++++o++++Xe}}}}}K822en^}}}}}}}}^r14433333433",
"+++++++++++++.z}}}{}j OoX.+D}}}}}}{}R33335333333",
"o++++++o+++++.C}}}}}eX#+##+.D}}}}}}}}B-535333333",
"++++++++++++#XY}{}}`$++++++o@^}}}}}}}'r133333333",
"+++++++++++++#^}}}}Eo++++++# V}}}}}}}}B-55433333",
"++++++++++++X8}}}}}K.#+++++#ot}}}}}}}}R353333353",
"+++++++++++#Xp}}}}}n.#+++#+o %]}}}}}}}{r13333333",
"|+++++++++++.n}}}}}aX$#oX.o8kL}}}}}}}}}g<533433|",
"|++++++++++#.H}}}}{8..X>dDW}}}}}}}}}}}}v-533333|",
"|+++++o+++++XE}}}}^%tMT]}}}}}}}}}}}}}{}N-533333|",
"||+++o++++++%`}}}}[)}}}}}{}}}}}}}}{}}}}N-53333||",
"||+++++++++Xe}}}}}}}}}}}}}}}}}}}}}}}`UNr353333||",
"||+++++++++Xh}}}}}}}}}}}}}}}}}}}[TCg6--1333333||",
"|||+++++++#.C}{}}}}}}}}}}}}}}QDd>X.&355533333|||",
"||||+++++++XP}}}}}}}}}}}}(Kz9o.Xo+#+=55333433|||",
"||||++++++++!}{}}}}}}`Une#.Xo+#++++++=533333||||",
"|||||+++++o,]}}}}{ECa$X.X+#++++++++++o=5353|||||",
"||||||++++Xp}}!Fh2X.Xo##++++++++++++++o=53||||||",
"|||||||+++Xyn0+X.o+#+++++++++o+++++++++o=|||||||",
"||||||||+++OXX++++++++++++++++++++++++++||||||||",
"|||||||||+++#++++++++++++++++++++++++++|||||||||",
"||||||||||++++++++++++++o+++++++++++++||||||||||",
"|||||||||||++++++++++++o++++++++o++++|||||||||||",
"|||||||||||||++++++++++++++++++++++|||||||||||||",
"||||||||||||||||++++++++++++++++||||||||||||||||",
"|||||||||||||||||||++++++++++|||||||||||||||||||"
};
